<?xml version="1.0" standalone="no"?>
<!DOCTYPE svg PUBLIC "-//W3C//DTD SVG 20010904//EN"
 "http://www.w3.org/TR/2001/REC-SVG-20010904/DTD/svg10.dtd">
<svg version="1.0" xmlns="http://www.w3.org/2000/svg"
 width="1819.000000pt" height="1769.000000pt" viewBox="0 0 1819.000000 1769.000000"
 preserveAspectRatio="xMidYMid meet">

<g transform="translate(0.000000,1769.000000) scale(0.100000,-0.100000)"
fill="#000000" stroke="none">
<path d="M8590 17659 c-1954 -108 -3808 -821 -5313 -2042 -444 -359 -955 -870
-1314 -1314 -1080 -1331 -1755 -2970 -1907 -4633 -37 -403 -48 -952 -26 -1323
163 -2738 1592 -5209 3915 -6773 2045 -1377 4599 -1872 7058 -1368 2331 477
4397 1854 5712 3808 244 363 395 622 589 1016 482 974 757 1959 862 3080 22
233 31 993 15 1243 -117 1824 -763 3491 -1906 4917 -1540 1922 -3834 3141
-6330 3365 -388 34 -977 45 -1355 24z m2773 -2359 c319 -99 404 -516 151 -739
-213 -187 -544 -120 -671 136 -32 65 -37 86 -41 163 -4 71 0 103 17 159 69
226 313 352 544 281z m-2025 -605 c380 -74 729 -308 931 -623 37 -58 50 -71
66 -67 243 62 498 36 722 -76 l103 -51 62 57 c120 108 277 162 438 151 81 -5
156 -22 199 -45 17 -9 24 -4 55 38 43 59 166 176 230 220 76 52 225 119 322
143 128 33 352 32 473 0 265 -72 491 -243 613 -463 31 -58 47 -77 58 -72 86
36 129 45 188 39 34 -3 83 -14 107 -25 58 -25 139 -102 164 -155 61 -125 41
-276 -49 -375 -33 -36 -33 -36 20 -65 43 -24 127 -120 158 -182 37 -74 54
-153 52 -246 -1 -49 5 -97 18 -143 35 -119 26 -219 -32 -341 -52 -110 -161
-209 -269 -244 l-39 -12 20 -22 c77 -84 76 -228 -2 -310 l-34 -36 62 -32 c86
-46 177 -140 220 -230 73 -154 73 -312 -1 -466 -27 -55 -140 -181 -192 -213
l-24 -15 22 -94 c85 -384 123 -858 102 -1278 -19 -367 -64 -643 -102 -630 -6
2 -47 93 -93 203 -248 601 -480 1050 -685 1326 l-78 106 -1029 6 c-566 4
-1625 14 -2354 23 -729 8 -1423 14 -1543 12 l-219 -3 -97 -215 c-194 -431
-313 -615 -437 -676 -50 -25 -58 -26 -96 -15 -22 7 -51 23 -64 36 -33 33 -32
100 6 357 32 219 50 392 50 476 l0 52 -444 0 -445 0 -144 -193 c-151 -202
-207 -261 -260 -271 -113 -21 -265 116 -423 381 l-48 81 -466 -4 -465 -5 -40
23 c-77 46 -86 72 -102 303 l-8 110 -72 6 c-240 22 -461 191 -546 419 -90 238
-35 502 141 684 49 50 151 127 183 138 6 2 0 34 -15 80 -47 140 -33 291 39
424 l32 60 -18 72 c-102 401 21 841 318 1138 166 167 375 279 615 330 111 24
361 24 468 0 225 -50 394 -135 569 -286 l79 -69 27 40 c44 62 166 173 241 217
285 169 632 158 905 -30 52 -36 80 -48 135 -57 38 -7 102 -21 142 -31 40 -11
78 -20 85 -20 7 0 36 33 65 73 29 41 92 113 140 160 239 239 500 365 867 421
63 9 343 -3 423 -19z m-3867 -4707 c75 -37 90 -53 349 -363 l224 -268 23 29
c100 128 455 544 483 566 72 57 128 68 350 68 l200 0 -2 -977 -3 -978 -26 -56
c-43 -92 -118 -134 -256 -146 -130 -11 -245 24 -300 92 -55 67 -56 73 -62 578
l-6 469 -199 -234 c-109 -128 -203 -234 -210 -235 -6 -2 -101 103 -211 232
l-200 235 -5 -478 c-5 -524 -3 -505 -69 -575 -63 -69 -145 -87 -393 -87 l-178
0 0 628 c0 346 3 832 7 1081 l6 452 211 -3 c207 -3 212 -4 267 -30z m2871 16
c57 -19 117 -69 156 -131 56 -89 720 -1554 732 -1617 16 -77 7 -130 -36 -216
-58 -115 -133 -163 -274 -176 -79 -8 -133 6 -188 46 -55 40 -88 91 -138 218
l-42 107 -323 0 -323 0 -36 -95 c-49 -127 -64 -155 -115 -206 -56 -55 -130
-79 -220 -70 -139 14 -209 61 -269 179 -34 67 -38 83 -38 147 1 39 6 88 13
108 15 49 293 663 329 727 15 28 116 246 225 485 109 239 206 452 216 473 l19
37 133 0 c94 0 147 -5 179 -16z m1533 -19 c72 -37 111 -93 125 -180 6 -35 10
-347 10 -742 l0 -683 345 0 345 0 0 -163 c0 -190 -13 -252 -64 -303 -54 -54
-72 -55 -589 -52 -531 4 -533 4 -608 79 -72 72 -69 27 -69 1112 l0 968 223 -3
224 -3 58 -30z m2160 24 c52 -15 119 -82 134 -134 14 -50 14 -158 0 -208 -5
-21 -24 -53 -41 -73 -58 -65 -70 -68 -308 -74 l-215 -5 -5 -740 -5 -740 -28
-48 c-34 -57 -97 -101 -168 -116 -28 -6 -137 -11 -244 -11 l-194 0 6 830 6
830 -194 0 c-107 0 -211 5 -232 11 -21 6 -56 26 -77 45 -59 53 -70 99 -70 286
l0 158 798 0 c553 0 809 -4 837 -11z m1001 -6 c34 -11 66 -34 104 -72 54 -55
65 -77 408 -826 195 -423 360 -797 369 -830 19 -76 12 -139 -25 -219 -56 -119
-120 -168 -243 -187 -97 -15 -157 -6 -216 34 -63 43 -97 93 -148 223 l-43 109
-323 0 -323 0 -37 -97 c-66 -174 -116 -235 -218 -265 -95 -27 -232 -2 -304 58
-45 37 -104 140 -115 201 -13 65 2 160 32 218 15 28 189 407 387 843 199 436
365 800 370 810 9 15 26 17 143 17 98 0 145 -4 182 -17z m-8676 -108 c101 -35
195 -136 226 -243 24 -81 15 -193 -20 -266 -74 -150 -241 -237 -398 -206 -124
24 -220 97 -275 208 -25 51 -28 68 -28 157 0 83 4 108 23 149 83 182 284 267
472 201z m5356 -2382 c84 -126 124 -250 124 -383 0 -96 -8 -115 -75 -170 -22
-19 -68 -61 -103 -94 -59 -57 -64 -60 -74 -41 -21 37 -110 124 -159 155 -61
40 -73 74 -66 189 8 138 66 275 175 412 l63 80 40 -48 c22 -26 56 -72 75 -100z
m-3741 -28 c84 -21 193 -77 249 -127 27 -23 219 -246 428 -495 209 -249 383
-455 387 -457 4 -3 178 200 387 451 208 250 401 476 429 500 27 25 80 60 117
79 117 59 157 64 511 64 l317 0 0 -1602 c0 -1395 -2 -1611 -15 -1667 -40 -169
-147 -267 -337 -307 -107 -23 -329 -15 -418 15 -134 46 -218 129 -262 259 -22
66 -22 74 -28 849 l-5 781 -344 -404 c-189 -222 -347 -404 -350 -404 -3 1
-161 182 -351 404 l-345 404 -5 -792 c-5 -698 -7 -797 -22 -838 -52 -151 -154
-237 -325 -273 -51 -11 -148 -15 -390 -15 l-323 0 0 1795 0 1795 318 0 c251 0
330 -3 377 -15z m6228 -14 c83 -33 173 -105 230 -183 38 -52 187 -368 628
-1330 319 -694 589 -1292 600 -1328 29 -93 35 -210 16 -287 -34 -132 -134
-289 -220 -346 -96 -64 -163 -81 -322 -81 l-141 -1 -76 38 c-128 63 -197 156
-279 374 -23 59 -50 132 -61 161 l-19 52 -543 0 -542 0 -63 -167 c-74 -198
-119 -279 -195 -351 -80 -76 -148 -103 -267 -110 -53 -2 -126 1 -166 8 -84 14
-193 64 -244 111 -50 47 -117 151 -153 234 -41 95 -47 225 -18 341 14 55 212
499 642 1444 342 751 631 1384 641 1408 l19 43 237 -3 c221 -3 242 -5 296 -27z
m-3000 -501 c213 -68 341 -201 382 -395 17 -82 18 -271 1 -365 -14 -79 -21
-80 -109 -9 -59 48 -165 105 -271 145 -43 17 -53 27 -82 79 -63 115 -80 249
-61 478 10 115 3 111 140 67z m940 8 c4 -13 11 -66 18 -118 24 -197 -22 -411
-103 -487 -13 -13 -50 -32 -81 -42 -82 -29 -166 -75 -237 -133 l-61 -49 8 83
c12 123 10 262 -6 362 -14 88 -14 89 10 134 53 102 172 190 324 241 108 37
121 38 128 9z m-932 -754 c204 -66 334 -202 374 -389 26 -126 12 -435 -20
-435 -7 0 -41 22 -75 50 -82 65 -147 102 -244 136 -65 23 -83 34 -107 67 -36
50 -75 170 -84 262 -6 61 9 297 20 333 5 15 27 11 136 -24z m933 14 c3 -13 11
-71 17 -130 19 -179 -11 -349 -80 -453 -22 -33 -39 -44 -101 -67 -100 -37
-162 -71 -239 -132 l-64 -50 6 49 c15 120 18 236 8 315 -25 185 -26 170 10
225 81 121 199 203 355 245 87 24 81 24 88 -2z m-971 -744 c218 -56 365 -198
412 -396 18 -75 20 -251 4 -364 -14 -96 -17 -97 -100 -28 -70 58 -161 109
-241 136 -74 24 -102 47 -133 109 -54 106 -71 237 -54 423 14 155 6 148 112
120z m978 -41 c16 -77 17 -293 0 -368 -16 -74 -62 -173 -93 -201 -13 -11 -61
-35 -108 -53 -47 -19 -125 -60 -174 -93 -49 -32 -90 -58 -91 -56 -1 2 1 57 6
123 4 68 3 155 -2 200 -25 211 -27 192 29 271 53 75 111 123 202 169 66 34
155 64 192 64 24 1 28 -4 39 -56z m-987 -699 c219 -56 375 -202 421 -395 18
-76 20 -257 4 -364 -14 -90 -14 -90 -146 -44 -112 40 -186 84 -250 152 -121
128 -155 276 -130 570 10 110 5 106 101 81z m979 -6 c4 -13 11 -66 18 -118 44
-357 -96 -594 -405 -689 -38 -12 -71 -20 -73 -17 -2 2 1 62 8 133 9 100 9 150
0 224 -26 196 -27 177 18 246 63 98 189 182 336 224 80 23 92 23 98 -3z m4330
-71 c337 -167 295 -659 -65 -768 -151 -46 -321 0 -423 113 -153 170 -152 404
2 569 91 97 175 131 314 126 88 -2 103 -6 172 -40z"/>
<path d="M8172 8963 c-33 -93 -63 -176 -67 -185 -7 -17 3 -18 123 -18 l131 0
-21 58 c-11 31 -20 64 -20 72 0 13 -75 231 -82 238 -2 1 -30 -73 -64 -165z"/>
<path d="M12860 8953 c-36 -97 -66 -180 -68 -184 -2 -5 57 -9 132 -9 75 0 136
2 136 4 0 6 -130 359 -133 363 -2 1 -32 -77 -67 -174z"/>
<path d="M11903 5707 l-111 -302 221 -3 c121 -1 222 -1 223 1 4 3 -212 596
-219 603 -1 2 -53 -133 -114 -299z"/>
</g>
</svg>
